<?xml version="1.0" encoding="utf-8"?>
<svg version="1.1" id="Layer_1" xmlns="http://www.w3.org/2000/svg" x="0px" y="0px" width="100%" viewBox="0 0 512 512" enable-background="new 0 0 512 512">
  <path fill="#EDAF6B" opacity="1.000000" stroke="none" d=" M296.531342,0.999997 C297.656952,1.662401 298.241028,2.802711 298.981781,2.915709 C310.558594,4.681667 322.254272,5.820906 333.721741,8.110497 C346.531311,10.668056 359.217072,13.955305 371.816559,17.432753 C398.426575,24.777100 423.393127,36.278008 447.537689,49.379860 C459.869629,56.071690 471.558685,64.153488 482.743958,72.652504 C487.245575,76.072998 489.619171,82.294098 492.583374,87.717560 C490.938416,89.916206 489.611572,91.597397 488.413544,93.365852 C476.536713,110.897545 454.495819,117.905113 435.186371,109.451584 C428.122894,106.359253 421.827423,101.460045 415.300903,97.202263 C372.283966,69.138763 325.144012,53.244804 273.910675,50.183006 C251.812988,48.862404 229.709244,50.182545 207.822357,54.071999 C174.711227,59.956066 143.567200,71.228043 114.580765,88.251907 C104.119614,94.395782 94.257423,101.560356 83.789627,107.691887 C66.137970,118.031364 41.978405,113.083160 29.290394,97.006180 C26.874758,93.945320 24.336788,90.980995 21.855259,87.972137 C25.763567,75.749146 35.297131,68.558502 45.476677,62.188026 C69.343903,47.251652 94.347473,34.650536 120.819389,24.824135 C141.482895,17.153820 162.709930,11.745546 184.158218,7.164132 C194.482620,4.958807 205.147491,4.356993 215.647598,2.949942 C216.696442,2.809396 217.671387,2.117556 218.340317,1.340788 C244.020889,1.000000 270.041779,1.000000 296.531342,0.999997 z"/>
  <path fill="#EDAF6B" opacity="1.000000" stroke="none" d=" M438.093445,147.113693 C431.712891,160.888336 425.407867,174.698593 418.933929,188.429199 C409.340668,208.775635 399.634186,229.068710 389.963654,249.378662 C380.995697,268.213043 371.988831,287.028992 363.040863,305.872864 C353.328125,326.327240 343.690338,346.817230 333.970428,367.268188 C324.459503,387.279205 314.852386,407.244537 305.349792,427.259552 C295.847931,447.273132 286.561829,467.390533 276.900024,487.326141 C272.746368,495.896545 267.883514,504.123230 263.671448,512.753052 C259.975464,513.000000 255.950912,513.000000 251.463196,513.000000 C249.645630,510.899841 248.107864,508.893127 246.978760,506.678131 C245.170670,503.131165 243.633484,499.446075 242.191010,495.206390 C244.509735,490.260376 246.657257,485.945404 248.722656,481.591461 C263.852051,449.697998 278.930634,417.780334 294.091522,385.901855 C314.760101,342.442413 335.506317,299.019867 356.157410,255.552155 C358.004547,251.664139 359.398071,247.560608 361.279572,243.380371 C376.126038,238.836777 389.206635,221.113861 381.439392,199.903015 C382.031555,199.603592 382.432037,199.477539 382.556488,199.218735 C388.175873,187.533234 393.833618,175.864792 399.236206,164.079437 C399.618988,163.244431 398.454987,160.998413 397.415863,160.323196 C388.083008,154.258881 378.821167,148.036987 369.133362,142.580566 C359.187653,136.978867 348.787476,132.184067 338.397675,126.767487 C335.282623,119.571945 332.265015,118.081306 323.115417,119.195442 C315.268768,116.749649 307.859406,114.302025 300.411346,111.978477 C281.306824,106.018494 261.655518,102.587158 241.779419,101.236656 C227.267487,100.250618 212.633011,100.929443 198.056412,101.117691 C193.606644,101.175163 189.113617,101.786308 184.733521,102.628273 C169.429169,105.570145 154.165558,108.723801 139.040863,111.502335 C155.114120,102.604187 172.285965,97.343498 189.737854,93.205986 C218.151779,86.469589 246.904709,83.553482 276.223083,85.811447 C295.028442,87.259750 313.450562,90.261314 331.696564,94.766182 C370.975952,104.464088 404.756714,125.337494 438.093445,147.113693 z"/>
  <path fill="#FFC885" opacity="1.000000" stroke="none" d=" M138.886459,111.796982 C154.165558,108.723801 169.429169,105.570145 184.733521,102.628273 C189.113617,101.786308 193.606644,101.175163 198.056412,101.117691 C212.633011,100.929443 227.267487,100.250618 241.779419,101.236656 C261.655518,102.587158 281.306824,106.018494 300.411346,111.978477 C307.859406,114.302025 315.268768,116.749649 322.877136,119.451820 C318.913208,122.420143 316.663910,126.072899 317.523529,131.100800 C318.483337,136.714783 323.538574,140.502609 329.035156,139.941422 C335.220825,139.309891 338.715302,134.588181 338.586182,127.036133 C348.787476,132.184067 359.187653,136.978867 369.133362,142.580566 C378.821167,148.036987 388.083008,154.258881 397.415863,160.323196 C398.454987,160.998413 399.618988,163.244431 399.236206,164.079437 C393.833618,175.864792 388.175873,187.533234 382.556488,199.218735 C382.432037,199.477539 382.031555,199.603592 381.262085,199.599533 C380.120117,198.246887 379.525299,197.055450 378.824158,195.930267 C369.411255,180.824860 349.709137,176.137222 334.751984,185.430832 C319.615417,194.835938 314.965332,214.218475 324.183167,229.483749 C331.621155,241.801575 344.248993,246.628311 361.002258,243.557159 C359.398071,247.560608 358.004547,251.664139 356.157410,255.552155 C335.506317,299.019867 314.760101,342.442413 294.091522,385.901855 C278.930634,417.780334 263.852051,449.697998 248.722656,481.591461 C246.657257,485.945404 244.509735,490.260376 242.144928,494.831604 C234.514679,479.834839 227.084946,464.626160 219.777969,449.358704 C209.448318,427.775635 199.212845,406.147461 188.930603,384.541656 C179.828964,365.416595 170.708847,346.300262 161.614136,327.171906 C148.633102,299.869751 135.660538,272.563507 122.698296,245.252396 C113.689194,226.270447 104.734505,207.262604 95.696930,188.294250 C89.234779,174.731293 82.675514,161.214615 76.333427,147.180801 C85.564728,141.190247 94.466141,135.415390 103.719131,130.273163 C115.290466,123.842537 127.150848,117.932014 138.886459,111.796982 M215.219543,152.330887 C206.168167,141.096176 194.471298,135.321518 180.007401,135.930466 C162.861679,136.652298 150.158173,144.904129 142.899292,160.351883 C135.550522,175.990936 137.275955,191.349716 147.969620,204.937469 C158.543793,218.373398 172.966949,223.662399 189.689804,220.356369 C220.848831,214.196365 234.001602,179.545593 215.219543,152.330887 M268.979492,313.323303 C256.357513,308.929962 244.884689,310.981232 235.234177,320.238434 C226.058548,329.040100 223.203018,339.977142 226.675186,352.250641 C230.795670,366.815735 244.002594,375.859009 259.604095,375.141235 C273.556732,374.499359 285.937073,363.800110 288.788513,349.919830 C291.910645,334.721863 284.355652,320.374969 268.979492,313.323303 M271.918457,163.657837 C278.431244,165.870041 284.815033,168.687927 291.495941,170.110535 C297.259674,171.337860 301.155365,168.098404 301.744781,163.326080 C302.333893,158.556229 298.793579,155.015427 292.699005,154.279083 C280.104401,152.757370 272.992218,145.721680 271.281006,133.227020 C271.016663,131.296997 270.756653,129.157822 269.759460,127.580040 C267.673187,124.279121 264.369263,123.157608 260.644684,124.500641 C256.462921,126.008507 254.948944,129.420898 255.244003,133.614716 C256.108856,145.906830 261.363617,155.859329 271.918457,163.657837 M294.123322,275.401947 C294.719879,273.371307 295.819611,271.344482 295.834839,269.309479 C295.980194,249.917130 278.118561,232.074631 258.707764,232.035309 C253.351013,232.024460 249.582520,235.122299 249.379211,239.703720 C249.178284,244.231384 252.614243,247.534332 258.059326,248.047836 C270.766296,249.246170 278.983185,257.011871 279.710541,269.939392 C280.104004,276.932434 288.403107,281.554413 294.123322,275.401947 M198.020981,270.447052 C201.307831,277.224396 207.075058,279.719971 212.871613,276.873108 C218.005539,274.351685 220.252625,268.117035 217.902679,262.914246 C215.800140,258.259216 210.609100,255.794495 205.471588,257.011902 C200.085190,258.288300 197.318161,262.910034 198.020981,270.447052 M311.699524,281.588776 C309.993683,286.339203 311.055969,290.454132 314.853210,293.682465 C318.008148,296.364716 321.738312,296.910614 325.562469,295.293030 C330.190521,293.335388 332.420624,289.710266 332.097595,284.671051 C331.785034,279.795654 329.000946,276.699371 324.514648,275.261993 C319.634369,273.698425 315.610992,275.625214 311.699524,281.588776 z"/>
  <path fill="#E29850" opacity="1.000000" stroke="none" d=" M139.040863,111.502335 C127.150848,117.932014 115.290466,123.842537 103.719131,130.273163 C94.466141,135.415390 85.564728,141.190247 76.184082,146.850052 C50.440994,154.638718 23.921423,139.236694 19.310574,112.625648 C17.966955,104.871109 20.446306,96.454178 21.514275,88.156509 C24.336788,90.980995 26.874758,93.945320 29.290394,97.006180 C41.978405,113.083160 66.137970,118.031364 83.789627,107.691887 C94.257423,101.560356 104.119614,94.395782 114.580765,88.251907 C143.567200,71.228043 174.711227,59.956066 207.822357,54.071999 C229.709244,50.182545 251.812988,48.862404 273.910675,50.183006 C325.144012,53.244804 372.283966,69.138763 415.300903,97.202263 C421.827423,101.460045 428.122894,106.359253 435.186371,109.451584 C454.495819,117.905113 476.536713,110.897545 488.413544,93.365852 C489.611572,91.597397 490.938416,89.916206 492.516968,88.083221 C498.874054,102.791527 497.248596,117.020172 488.353363,130.024017 C479.227753,143.364578 465.803040,149.120819 449.847778,148.911697 C446.192902,148.863800 442.552490,147.714615 438.499451,147.092987 C404.756714,125.337494 370.975952,104.464088 331.696564,94.766182 C313.450562,90.261314 295.028442,87.259750 276.223083,85.811447 C246.904709,83.553482 218.151779,86.469589 189.737854,93.205986 C172.285965,97.343498 155.114120,102.604187 139.040863,111.502335 z"/>
  <path fill="#FF2F2F" opacity="1.000000" stroke="none" d=" M361.279572,243.380371 C344.248993,246.628311 331.621155,241.801575 324.183167,229.483749 C314.965332,214.218475 319.615417,194.835938 334.751984,185.430832 C349.709137,176.137222 369.411255,180.824860 378.824158,195.930267 C379.525299,197.055450 380.120117,198.246887 380.941681,199.710999 C389.206635,221.113861 376.126038,238.836777 361.279572,243.380371 z"/>
  <path fill="#2C3E52" opacity="1.000000" stroke="none" d=" M338.397675,126.767479 C338.715302,134.588181 335.220825,139.309891 329.035156,139.941422 C323.538574,140.502609 318.483337,136.714783 317.523529,131.100800 C316.663910,126.072899 318.913208,122.420143 323.296814,119.506508 C332.265015,118.081306 335.282623,119.571945 338.397675,126.767479 z"/>
  <path fill="#FF2F2E" opacity="1.000000" stroke="none" d=" M215.442993,152.611496 C234.001602,179.545593 220.848831,214.196365 189.689804,220.356369 C172.966949,223.662399 158.543793,218.373398 147.969620,204.937469 C137.275955,191.349716 135.550522,175.990936 142.899292,160.351883 C150.158173,144.904129 162.861679,136.652298 180.007401,135.930466 C194.471298,135.321518 206.168167,141.096176 215.442993,152.611496 z"/>
  <path fill="#FF2F2F" opacity="1.000000" stroke="none" d=" M269.333862,313.485840 C284.355652,320.374969 291.910645,334.721863 288.788513,349.919830 C285.937073,363.800110 273.556732,374.499359 259.604095,375.141235 C244.002594,375.859009 230.795670,366.815735 226.675186,352.250641 C223.203018,339.977142 226.058548,329.040100 235.234177,320.238434 C244.884689,310.981232 256.357513,308.929962 269.333862,313.485840 z"/>
  <path fill="#76E016" opacity="1.000000" stroke="none" d=" M271.631165,163.437805 C261.363617,155.859329 256.108856,145.906830 255.244003,133.614716 C254.948944,129.420898 256.462921,126.008507 260.644684,124.500641 C264.369263,123.157608 267.673187,124.279121 269.759460,127.580040 C270.756653,129.157822 271.016663,131.296997 271.281006,133.227020 C272.992218,145.721680 280.104401,152.757370 292.699005,154.279083 C298.793579,155.015427 302.333893,158.556229 301.744781,163.326080 C301.155365,168.098404 297.259674,171.337860 291.495941,170.110535 C284.815033,168.687927 278.431244,165.870041 271.631165,163.437805 z"/>
  <path fill="#75E016" opacity="1.000000" stroke="none" d=" M293.876495,275.694397 C288.403107,281.554413 280.104004,276.932434 279.710541,269.939392 C278.983185,257.011871 270.766296,249.246170 258.059326,248.047836 C252.614243,247.534332 249.178284,244.231384 249.379211,239.703720 C249.582520,235.122299 253.351013,232.024460 258.707764,232.035309 C278.118561,232.074631 295.980194,249.917130 295.834839,269.309479 C295.819611,271.344482 294.719879,273.371307 293.876495,275.694397 z"/>
  <path fill="#2B3E52" opacity="1.000000" stroke="none" d=" M197.944611,270.079407 C197.318161,262.910034 200.085190,258.288300 205.471588,257.011902 C210.609100,255.794495 215.800140,258.259216 217.902679,262.914246 C220.252625,268.117035 218.005539,274.351685 212.871613,276.873108 C207.075058,279.719971 201.307831,277.224396 197.944611,270.079407 z"/>
  <path fill="#2A3D52" opacity="1.000000" stroke="none" d=" M311.847534,281.223938 C315.610992,275.625214 319.634369,273.698425 324.514648,275.261993 C329.000946,276.699371 331.785034,279.795654 332.097595,284.671051 C332.420624,289.710266 330.190521,293.335388 325.562469,295.293030 C321.738312,296.910614 318.008148,296.364716 314.853210,293.682465 C311.055969,290.454132 309.993683,286.339203 311.847534,281.223938 z"/>
</svg>